<svg xmlns="http://www.w3.org/2000/svg" xmlns:xlink="http://www.w3.org/1999/xlink" width="500" zoomAndPan="magnify" viewBox="0 0 375 374.999991" height="500" preserveAspectRatio="xMidYMid meet" version="1.0"><defs><g/><clipPath id="3b996f76ad"><path d="M 165 69.972656 L 245.007812 69.972656 L 245.007812 128 L 165 128 Z M 165 69.972656 " clip-rule="nonzero"/></clipPath><clipPath id="dd98f3a41f"><path d="M 157.613281 79.613281 L 217.066406 79.613281 L 217.066406 138.972656 L 157.613281 138.972656 Z M 157.613281 79.613281 " clip-rule="nonzero"/></clipPath><clipPath id="6fe08c227c"><path d="M 165 70 L 245.007812 70 L 245.007812 128 L 165 128 Z M 165 70 " clip-rule="nonzero"/></clipPath><clipPath id="3ba95e31cd"><path d="M 157.613281 79.613281 L 163.351562 79.613281 L 163.351562 138.972656 L 157.613281 138.972656 Z M 157.613281 79.613281 " clip-rule="nonzero"/></clipPath><clipPath id="d7df25bd4a"><path d="M 211.328125 92.929688 L 217.066406 92.929688 L 217.066406 138.972656 L 211.328125 138.972656 Z M 211.328125 92.929688 " clip-rule="nonzero"/></clipPath><clipPath id="8d1f2a7606"><rect x="0" width="301" y="0" height="121"/></clipPath><clipPath id="08e6fccaa3"><rect x="0" width="293" y="0" height="17"/></clipPath></defs><rect x="-37.5" width="450" fill="#ffffff" y="-37.499999" height="449.999989" fill-opacity="1"/><rect x="-37.5" width="450" fill="#ffffff" y="-37.499999" height="449.999989" fill-opacity="1"/><g clip-path="url(#3b996f76ad)"><path fill="#edd99e" d="M 245.007812 70.042969 C 234.285156 73.691406 224.867188 80.804688 217.019531 88.839844 C 215.050781 90.84375 213.1875 92.910156 211.417969 94.988281 C 197.894531 110.933594 190.269531 127.890625 190.269531 127.890625 L 165.078125 93.367188 L 185.914062 106.742188 C 192.335938 97.449219 198.941406 90.484375 205.324219 85.28125 C 207.960938 83.128906 210.558594 81.277344 213.085938 79.683594 C 230.800781 68.5 245.007812 70.042969 245.007812 70.042969 " fill-opacity="1" fill-rule="nonzero"/></g><g clip-path="url(#dd98f3a41f)"><path fill="#edd99e" d="M 217.019531 92.96875 L 217.019531 139.085938 L 157.613281 139.085938 L 157.613281 79.683594 L 207.90625 79.683594 C 206.703125 80.558594 205.488281 81.484375 204.265625 82.484375 C 203.191406 83.359375 202.109375 84.304688 201.023438 85.28125 L 163.214844 85.28125 L 163.214844 133.488281 L 211.417969 133.488281 L 211.417969 99.324219 C 211.894531 98.738281 212.378906 98.160156 212.871094 97.578125 C 214.191406 96.023438 215.585938 94.488281 217.019531 92.96875 " fill-opacity="1" fill-rule="nonzero"/></g><g clip-path="url(#6fe08c227c)"><path fill="#edd99e" d="M 245.007812 70.042969 C 234.285156 73.691406 224.867188 80.804688 217.019531 88.839844 C 215.050781 90.84375 213.1875 92.910156 211.417969 94.988281 C 197.894531 110.933594 190.269531 127.890625 190.269531 127.890625 L 165.078125 93.367188 L 189.144531 116.074219 C 189.144531 116.074219 207.902344 77.378906 245.007812 70.042969 " fill-opacity="1" fill-rule="nonzero"/></g><g clip-path="url(#3ba95e31cd)"><path fill="#edd99e" d="M 163.214844 85.28125 L 163.214844 133.488281 L 157.613281 139.085938 L 157.613281 79.683594 L 163.214844 85.28125 " fill-opacity="1" fill-rule="nonzero"/></g><g clip-path="url(#d7df25bd4a)"><path fill="#edd99e" d="M 217.019531 92.96875 L 217.019531 139.085938 L 211.417969 133.488281 L 211.417969 99.324219 C 211.894531 98.738281 212.378906 98.160156 212.871094 97.578125 C 214.191406 96.023438 215.585938 94.488281 217.019531 92.96875 " fill-opacity="1" fill-rule="nonzero"/></g><g transform="matrix(1, 0, 0, 1, 35, 127)"><g clip-path="url(#8d1f2a7606)"><g fill="#edd99e" fill-opacity="1"><g transform="translate(1.020141, 96.508675)"><g><path d="M 8.203125 -76.203125 L 74.109375 -76.203125 L 74.109375 -57.9375 L 32.671875 -57.9375 L 32.671875 -47.40625 L 68.125 -47.40625 L 68.125 -29.90625 L 32.671875 -29.90625 L 32.671875 -18.28125 L 74.875 -18.28125 L 74.875 0 L 8.203125 0 Z M 8.203125 -76.203125 "/></g></g></g><g fill="#edd99e" fill-opacity="1"><g transform="translate(75.339199, 96.508675)"><g><path d="M 40.203125 -77.53125 C 49.953125 -77.53125 57.960938 -75.554688 64.234375 -71.609375 C 70.515625 -67.660156 73.726562 -61.804688 73.875 -54.046875 L 73.875 -52.71875 L 50.953125 -52.71875 L 50.953125 -53.171875 C 50.953125 -55.378906 50.140625 -57.222656 48.515625 -58.703125 C 46.890625 -60.179688 44.414062 -60.921875 41.09375 -60.921875 C 37.84375 -60.921875 35.347656 -60.441406 33.609375 -59.484375 C 31.878906 -58.523438 31.015625 -57.34375 31.015625 -55.9375 C 31.015625 -53.945312 32.195312 -52.46875 34.5625 -51.5 C 36.925781 -50.539062 40.726562 -49.546875 45.96875 -48.515625 C 52.09375 -47.253906 57.128906 -45.941406 61.078125 -44.578125 C 65.035156 -43.210938 68.488281 -40.976562 71.4375 -37.875 C 74.394531 -34.78125 75.910156 -30.570312 75.984375 -25.25 C 75.984375 -16.238281 72.9375 -9.554688 66.84375 -5.203125 C 60.75 -0.847656 52.609375 1.328125 42.421875 1.328125 C 30.535156 1.328125 21.285156 -0.664062 14.671875 -4.65625 C 8.066406 -8.644531 4.765625 -15.695312 4.765625 -25.8125 L 27.90625 -25.8125 C 27.90625 -21.96875 28.898438 -19.398438 30.890625 -18.109375 C 32.890625 -16.816406 35.992188 -16.171875 40.203125 -16.171875 C 43.304688 -16.171875 45.875 -16.503906 47.90625 -17.171875 C 49.9375 -17.835938 50.953125 -19.203125 50.953125 -21.265625 C 50.953125 -23.109375 49.828125 -24.492188 47.578125 -25.421875 C 45.328125 -26.347656 41.648438 -27.328125 36.546875 -28.359375 C 30.347656 -29.679688 25.21875 -31.0625 21.15625 -32.5 C 17.09375 -33.945312 13.546875 -36.332031 10.515625 -39.65625 C 7.492188 -42.976562 5.984375 -47.484375 5.984375 -53.171875 C 5.984375 -61.515625 9.210938 -67.660156 15.671875 -71.609375 C 22.128906 -75.554688 30.304688 -77.53125 40.203125 -77.53125 Z M 40.203125 -77.53125 "/></g></g></g><g fill="#edd99e" fill-opacity="1"><g transform="translate(149.658256, 96.508675)"><g><path d="M 50.953125 -76.203125 C 55.679688 -76.203125 59.890625 -75.113281 63.578125 -72.9375 C 67.273438 -70.757812 70.15625 -67.769531 72.21875 -63.96875 C 74.289062 -60.164062 75.328125 -55.898438 75.328125 -51.171875 L 75.328125 -49.734375 C 75.328125 -45.003906 74.289062 -40.71875 72.21875 -36.875 C 70.15625 -33.039062 67.273438 -30.035156 63.578125 -27.859375 C 59.890625 -25.679688 55.679688 -24.59375 50.953125 -24.59375 L 32.671875 -24.59375 L 32.671875 0 L 8.203125 0 L 8.203125 -76.203125 Z M 32.671875 -42.421875 L 42.75 -42.421875 C 45.332031 -42.421875 47.269531 -43.082031 48.5625 -44.40625 C 49.863281 -45.738281 50.515625 -47.550781 50.515625 -49.84375 L 50.515625 -50.734375 C 50.515625 -53.097656 49.863281 -54.925781 48.5625 -56.21875 C 47.269531 -57.507812 45.332031 -58.15625 42.75 -58.15625 L 32.671875 -58.15625 Z M 32.671875 -42.421875 "/></g></g></g><g fill="#edd99e" fill-opacity="1"><g transform="translate(223.977326, 96.508675)"><g><path d="M 8.203125 -76.203125 L 74.109375 -76.203125 L 74.109375 -57.9375 L 32.671875 -57.9375 L 32.671875 -47.40625 L 68.125 -47.40625 L 68.125 -29.90625 L 32.671875 -29.90625 L 32.671875 -18.28125 L 74.875 -18.28125 L 74.875 0 L 8.203125 0 Z M 8.203125 -76.203125 "/></g></g></g></g></g><g transform="matrix(1, 0, 0, 1, 43, 231)"><g clip-path="url(#08e6fccaa3)"><g fill="#edd99e" fill-opacity="1"><g transform="translate(0.790695, 12.960069)"><g><path d="M 6.203125 -4.203125 L 2.265625 -4.203125 L 2.265625 -0.984375 L 6.84375 -0.984375 L 6.84375 0 L 1.0625 0 L 1.0625 -9.109375 L 6.78125 -9.109375 L 6.78125 -8.125 L 2.265625 -8.125 L 2.265625 -5.1875 L 6.203125 -5.1875 Z M 6.203125 -4.203125 "/></g></g></g><g fill="#edd99e" fill-opacity="1"><g transform="translate(8.07104, 12.960069)"><g><path d="M 3.734375 -4.0625 C 2.710938 -4.351562 1.960938 -4.710938 1.484375 -5.140625 C 1.015625 -5.578125 0.78125 -6.113281 0.78125 -6.75 C 0.78125 -7.46875 1.066406 -8.0625 1.640625 -8.53125 C 2.222656 -9 2.972656 -9.234375 3.890625 -9.234375 C 4.515625 -9.234375 5.070312 -9.113281 5.5625 -8.875 C 6.050781 -8.632812 6.425781 -8.300781 6.6875 -7.875 C 6.957031 -7.445312 7.09375 -6.976562 7.09375 -6.46875 L 5.890625 -6.46875 C 5.890625 -7.019531 5.710938 -7.453125 5.359375 -7.765625 C 5.015625 -8.085938 4.523438 -8.25 3.890625 -8.25 C 3.296875 -8.25 2.832031 -8.117188 2.5 -7.859375 C 2.164062 -7.597656 2 -7.234375 2 -6.765625 C 2 -6.398438 2.15625 -6.085938 2.46875 -5.828125 C 2.789062 -5.566406 3.328125 -5.332031 4.078125 -5.125 C 4.835938 -4.914062 5.429688 -4.679688 5.859375 -4.421875 C 6.285156 -4.160156 6.601562 -3.859375 6.8125 -3.515625 C 7.019531 -3.179688 7.125 -2.78125 7.125 -2.3125 C 7.125 -1.570312 6.832031 -0.976562 6.25 -0.53125 C 5.675781 -0.09375 4.910156 0.125 3.953125 0.125 C 3.328125 0.125 2.738281 0.00390625 2.1875 -0.234375 C 1.644531 -0.472656 1.226562 -0.800781 0.9375 -1.21875 C 0.644531 -1.632812 0.5 -2.109375 0.5 -2.640625 L 1.703125 -2.640625 C 1.703125 -2.085938 1.90625 -1.648438 2.3125 -1.328125 C 2.71875 -1.015625 3.265625 -0.859375 3.953125 -0.859375 C 4.585938 -0.859375 5.070312 -0.988281 5.40625 -1.25 C 5.738281 -1.507812 5.90625 -1.859375 5.90625 -2.296875 C 5.90625 -2.742188 5.75 -3.085938 5.4375 -3.328125 C 5.125 -3.578125 4.554688 -3.820312 3.734375 -4.0625 Z M 3.734375 -4.0625 "/></g></g></g><g fill="#edd99e" fill-opacity="1"><g transform="translate(15.670377, 12.960069)"><g><path d="M 7.75 -2.890625 C 7.644531 -1.921875 7.289062 -1.175781 6.6875 -0.65625 C 6.09375 -0.132812 5.296875 0.125 4.296875 0.125 C 3.222656 0.125 2.363281 -0.257812 1.71875 -1.03125 C 1.070312 -1.800781 0.75 -2.832031 0.75 -4.125 L 0.75 -5 C 0.75 -5.851562 0.898438 -6.597656 1.203125 -7.234375 C 1.503906 -7.878906 1.929688 -8.375 2.484375 -8.71875 C 3.035156 -9.0625 3.675781 -9.234375 4.40625 -9.234375 C 5.375 -9.234375 6.148438 -8.960938 6.734375 -8.421875 C 7.316406 -7.878906 7.65625 -7.132812 7.75 -6.1875 L 6.546875 -6.1875 C 6.441406 -6.90625 6.210938 -7.425781 5.859375 -7.75 C 5.515625 -8.082031 5.03125 -8.25 4.40625 -8.25 C 3.644531 -8.25 3.046875 -7.960938 2.609375 -7.390625 C 2.171875 -6.828125 1.953125 -6.019531 1.953125 -4.96875 L 1.953125 -4.09375 C 1.953125 -3.101562 2.15625 -2.316406 2.5625 -1.734375 C 2.976562 -1.148438 3.554688 -0.859375 4.296875 -0.859375 C 4.972656 -0.859375 5.488281 -1.007812 5.84375 -1.3125 C 6.195312 -1.613281 6.429688 -2.140625 6.546875 -2.890625 Z M 7.75 -2.890625 "/></g></g></g><g fill="#edd99e" fill-opacity="1"><g transform="translate(24.007756, 12.960069)"><g><path d="M 7.46875 -9.109375 L 7.46875 -2.921875 C 7.46875 -2.054688 7.195312 -1.347656 6.65625 -0.796875 C 6.125 -0.253906 5.398438 0.046875 4.484375 0.109375 L 4.15625 0.125 C 3.164062 0.125 2.375 -0.140625 1.78125 -0.671875 C 1.1875 -1.210938 0.882812 -1.957031 0.875 -2.90625 L 0.875 -9.109375 L 2.0625 -9.109375 L 2.0625 -2.9375 C 2.0625 -2.28125 2.242188 -1.769531 2.609375 -1.40625 C 2.972656 -1.039062 3.488281 -0.859375 4.15625 -0.859375 C 4.84375 -0.859375 5.363281 -1.039062 5.71875 -1.40625 C 6.082031 -1.769531 6.265625 -2.28125 6.265625 -2.9375 L 6.265625 -9.109375 Z M 7.46875 -9.109375 "/></g></g></g><g fill="#edd99e" fill-opacity="1"><g transform="translate(32.313855, 12.960069)"><g><path d="M 6.203125 -4.203125 L 2.265625 -4.203125 L 2.265625 -0.984375 L 6.84375 -0.984375 L 6.84375 0 L 1.0625 0 L 1.0625 -9.109375 L 6.78125 -9.109375 L 6.78125 -8.125 L 2.265625 -8.125 L 2.265625 -5.1875 L 6.203125 -5.1875 Z M 6.203125 -4.203125 "/></g></g></g><g fill="#edd99e" fill-opacity="1"><g transform="translate(39.594201, 12.960069)"><g><path d="M 2.265625 -0.984375 L 6.578125 -0.984375 L 6.578125 0 L 1.0625 0 L 1.0625 -9.109375 L 2.265625 -9.109375 Z M 2.265625 -0.984375 "/></g></g></g><g fill="#edd99e" fill-opacity="1"><g transform="translate(46.486762, 12.960069)"><g><path d="M 6.09375 -2.375 L 2.265625 -2.375 L 1.40625 0 L 0.171875 0 L 3.65625 -9.109375 L 4.703125 -9.109375 L 8.1875 0 L 6.953125 0 Z M 2.640625 -3.359375 L 5.734375 -3.359375 L 4.171875 -7.625 Z M 2.640625 -3.359375 "/></g></g></g><g fill="#edd99e" fill-opacity="1"><g transform="translate(54.842898, 12.960069)"><g/></g></g><g fill="#edd99e" fill-opacity="1"><g transform="translate(58.013983, 12.960069)"><g><path d="M 3.734375 -4.0625 C 2.710938 -4.351562 1.960938 -4.710938 1.484375 -5.140625 C 1.015625 -5.578125 0.78125 -6.113281 0.78125 -6.75 C 0.78125 -7.46875 1.066406 -8.0625 1.640625 -8.53125 C 2.222656 -9 2.972656 -9.234375 3.890625 -9.234375 C 4.515625 -9.234375 5.070312 -9.113281 5.5625 -8.875 C 6.050781 -8.632812 6.425781 -8.300781 6.6875 -7.875 C 6.957031 -7.445312 7.09375 -6.976562 7.09375 -6.46875 L 5.890625 -6.46875 C 5.890625 -7.019531 5.710938 -7.453125 5.359375 -7.765625 C 5.015625 -8.085938 4.523438 -8.25 3.890625 -8.25 C 3.296875 -8.25 2.832031 -8.117188 2.5 -7.859375 C 2.164062 -7.597656 2 -7.234375 2 -6.765625 C 2 -6.398438 2.15625 -6.085938 2.46875 -5.828125 C 2.789062 -5.566406 3.328125 -5.332031 4.078125 -5.125 C 4.835938 -4.914062 5.429688 -4.679688 5.859375 -4.421875 C 6.285156 -4.160156 6.601562 -3.859375 6.8125 -3.515625 C 7.019531 -3.179688 7.125 -2.78125 7.125 -2.3125 C 7.125 -1.570312 6.832031 -0.976562 6.25 -0.53125 C 5.675781 -0.09375 4.910156 0.125 3.953125 0.125 C 3.328125 0.125 2.738281 0.00390625 2.1875 -0.234375 C 1.644531 -0.472656 1.226562 -0.800781 0.9375 -1.21875 C 0.644531 -1.632812 0.5 -2.109375 0.5 -2.640625 L 1.703125 -2.640625 C 1.703125 -2.085938 1.90625 -1.648438 2.3125 -1.328125 C 2.71875 -1.015625 3.265625 -0.859375 3.953125 -0.859375 C 4.585938 -0.859375 5.070312 -0.988281 5.40625 -1.25 C 5.738281 -1.507812 5.90625 -1.859375 5.90625 -2.296875 C 5.90625 -2.742188 5.75 -3.085938 5.4375 -3.328125 C 5.125 -3.578125 4.554688 -3.820312 3.734375 -4.0625 Z M 3.734375 -4.0625 "/></g></g></g><g fill="#edd99e" fill-opacity="1"><g transform="translate(65.61332, 12.960069)"><g><path d="M 7.46875 -9.109375 L 7.46875 -2.921875 C 7.46875 -2.054688 7.195312 -1.347656 6.65625 -0.796875 C 6.125 -0.253906 5.398438 0.046875 4.484375 0.109375 L 4.15625 0.125 C 3.164062 0.125 2.375 -0.140625 1.78125 -0.671875 C 1.1875 -1.210938 0.882812 -1.957031 0.875 -2.90625 L 0.875 -9.109375 L 2.0625 -9.109375 L 2.0625 -2.9375 C 2.0625 -2.28125 2.242188 -1.769531 2.609375 -1.40625 C 2.972656 -1.039062 3.488281 -0.859375 4.15625 -0.859375 C 4.84375 -0.859375 5.363281 -1.039062 5.71875 -1.40625 C 6.082031 -1.769531 6.265625 -2.28125 6.265625 -2.9375 L 6.265625 -9.109375 Z M 7.46875 -9.109375 "/></g></g></g><g fill="#edd99e" fill-opacity="1"><g transform="translate(73.919419, 12.960069)"><g><path d="M 2.265625 -3.5625 L 2.265625 0 L 1.0625 0 L 1.0625 -9.109375 L 4.421875 -9.109375 C 5.410156 -9.109375 6.1875 -8.851562 6.75 -8.34375 C 7.320312 -7.832031 7.609375 -7.160156 7.609375 -6.328125 C 7.609375 -5.441406 7.332031 -4.757812 6.78125 -4.28125 C 6.226562 -3.800781 5.4375 -3.5625 4.40625 -3.5625 Z M 2.265625 -4.546875 L 4.421875 -4.546875 C 5.054688 -4.546875 5.546875 -4.695312 5.890625 -5 C 6.234375 -5.300781 6.40625 -5.738281 6.40625 -6.3125 C 6.40625 -6.851562 6.234375 -7.285156 5.890625 -7.609375 C 5.546875 -7.941406 5.078125 -8.113281 4.484375 -8.125 L 2.265625 -8.125 Z M 2.265625 -4.546875 "/></g></g></g><g fill="#edd99e" fill-opacity="1"><g transform="translate(82.000353, 12.960069)"><g><path d="M 6.203125 -4.203125 L 2.265625 -4.203125 L 2.265625 -0.984375 L 6.84375 -0.984375 L 6.84375 0 L 1.0625 0 L 1.0625 -9.109375 L 6.78125 -9.109375 L 6.78125 -8.125 L 2.265625 -8.125 L 2.265625 -5.1875 L 6.203125 -5.1875 Z M 6.203125 -4.203125 "/></g></g></g><g fill="#edd99e" fill-opacity="1"><g transform="translate(89.280699, 12.960069)"><g><path d="M 4.390625 -3.6875 L 2.265625 -3.6875 L 2.265625 0 L 1.046875 0 L 1.046875 -9.109375 L 4.0625 -9.109375 C 5.09375 -9.109375 5.882812 -8.875 6.4375 -8.40625 C 6.988281 -7.9375 7.265625 -7.257812 7.265625 -6.375 C 7.265625 -5.800781 7.109375 -5.300781 6.796875 -4.875 C 6.492188 -4.457031 6.070312 -4.144531 5.53125 -3.9375 L 7.65625 -0.078125 L 7.65625 0 L 6.375 0 Z M 2.265625 -4.671875 L 4.109375 -4.671875 C 4.703125 -4.671875 5.175781 -4.820312 5.53125 -5.125 C 5.882812 -5.4375 6.0625 -5.851562 6.0625 -6.375 C 6.0625 -6.9375 5.890625 -7.363281 5.546875 -7.65625 C 5.210938 -7.957031 4.726562 -8.113281 4.09375 -8.125 L 2.265625 -8.125 Z M 2.265625 -4.671875 "/></g></g></g><g fill="#edd99e" fill-opacity="1"><g transform="translate(97.167746, 12.960069)"><g><path d="M 2.34375 0 L 1.140625 0 L 1.140625 -9.109375 L 2.34375 -9.109375 Z M 2.34375 0 "/></g></g></g><g fill="#edd99e" fill-opacity="1"><g transform="translate(100.651561, 12.960069)"><g><path d="M 8.0625 -4.265625 C 8.0625 -3.367188 7.910156 -2.585938 7.609375 -1.921875 C 7.304688 -1.253906 6.878906 -0.742188 6.328125 -0.390625 C 5.785156 -0.046875 5.144531 0.125 4.40625 0.125 C 3.6875 0.125 3.050781 -0.0507812 2.5 -0.40625 C 1.945312 -0.757812 1.515625 -1.257812 1.203125 -1.90625 C 0.898438 -2.5625 0.742188 -3.316406 0.734375 -4.171875 L 0.734375 -4.84375 C 0.734375 -5.71875 0.882812 -6.488281 1.1875 -7.15625 C 1.5 -7.832031 1.929688 -8.347656 2.484375 -8.703125 C 3.046875 -9.054688 3.679688 -9.234375 4.390625 -9.234375 C 5.128906 -9.234375 5.773438 -9.054688 6.328125 -8.703125 C 6.878906 -8.347656 7.304688 -7.835938 7.609375 -7.171875 C 7.910156 -6.503906 8.0625 -5.726562 8.0625 -4.84375 Z M 6.875 -4.84375 C 6.875 -5.925781 6.65625 -6.753906 6.21875 -7.328125 C 5.78125 -7.910156 5.171875 -8.203125 4.390625 -8.203125 C 3.640625 -8.203125 3.046875 -7.910156 2.609375 -7.328125 C 2.171875 -6.753906 1.945312 -5.957031 1.9375 -4.9375 L 1.9375 -4.265625 C 1.9375 -3.210938 2.15625 -2.382812 2.59375 -1.78125 C 3.03125 -1.1875 3.632812 -0.890625 4.40625 -0.890625 C 5.1875 -0.890625 5.785156 -1.171875 6.203125 -1.734375 C 6.628906 -2.304688 6.851562 -3.117188 6.875 -4.171875 Z M 6.875 -4.84375 "/></g></g></g><g fill="#edd99e" fill-opacity="1"><g transform="translate(109.458028, 12.960069)"><g><path d="M 4.390625 -3.6875 L 2.265625 -3.6875 L 2.265625 0 L 1.046875 0 L 1.046875 -9.109375 L 4.0625 -9.109375 C 5.09375 -9.109375 5.882812 -8.875 6.4375 -8.40625 C 6.988281 -7.9375 7.265625 -7.257812 7.265625 -6.375 C 7.265625 -5.800781 7.109375 -5.300781 6.796875 -4.875 C 6.492188 -4.457031 6.070312 -4.144531 5.53125 -3.9375 L 7.65625 -0.078125 L 7.65625 0 L 6.375 0 Z M 2.265625 -4.671875 L 4.109375 -4.671875 C 4.703125 -4.671875 5.175781 -4.820312 5.53125 -5.125 C 5.882812 -5.4375 6.0625 -5.851562 6.0625 -6.375 C 6.0625 -6.9375 5.890625 -7.363281 5.546875 -7.65625 C 5.210938 -7.957031 4.726562 -8.113281 4.09375 -8.125 L 2.265625 -8.125 Z M 2.265625 -4.671875 "/></g></g></g><g fill="#edd99e" fill-opacity="1"><g transform="translate(117.345076, 12.960069)"><g/></g></g><g fill="#edd99e" fill-opacity="1"><g transform="translate(120.516161, 12.960069)"><g><path d="M 1.0625 0 L 1.0625 -9.109375 L 3.625 -9.109375 C 4.414062 -9.109375 5.113281 -8.929688 5.71875 -8.578125 C 6.332031 -8.234375 6.804688 -7.738281 7.140625 -7.09375 C 7.472656 -6.445312 7.640625 -5.703125 7.640625 -4.859375 L 7.640625 -4.28125 C 7.640625 -3.414062 7.472656 -2.660156 7.140625 -2.015625 C 6.816406 -1.367188 6.347656 -0.875 5.734375 -0.53125 C 5.117188 -0.1875 4.398438 -0.0078125 3.578125 0 Z M 2.265625 -8.125 L 2.265625 -0.984375 L 3.515625 -0.984375 C 4.441406 -0.984375 5.160156 -1.269531 5.671875 -1.84375 C 6.191406 -2.414062 6.453125 -3.234375 6.453125 -4.296875 L 6.453125 -4.84375 C 6.453125 -5.875 6.207031 -6.675781 5.71875 -7.25 C 5.238281 -7.820312 4.550781 -8.113281 3.65625 -8.125 Z M 2.265625 -8.125 "/></g></g></g><g fill="#edd99e" fill-opacity="1"><g transform="translate(128.916085, 12.960069)"><g><path d="M 6.203125 -4.203125 L 2.265625 -4.203125 L 2.265625 -0.984375 L 6.84375 -0.984375 L 6.84375 0 L 1.0625 0 L 1.0625 -9.109375 L 6.78125 -9.109375 L 6.78125 -8.125 L 2.265625 -8.125 L 2.265625 -5.1875 L 6.203125 -5.1875 Z M 6.203125 -4.203125 "/></g></g></g><g fill="#edd99e" fill-opacity="1"><g transform="translate(136.196431, 12.960069)"><g/></g></g><g fill="#edd99e" fill-opacity="1"><g transform="translate(139.367516, 12.960069)"><g><path d="M 2.265625 -3.5625 L 2.265625 0 L 1.0625 0 L 1.0625 -9.109375 L 4.421875 -9.109375 C 5.410156 -9.109375 6.1875 -8.851562 6.75 -8.34375 C 7.320312 -7.832031 7.609375 -7.160156 7.609375 -6.328125 C 7.609375 -5.441406 7.332031 -4.757812 6.78125 -4.28125 C 6.226562 -3.800781 5.4375 -3.5625 4.40625 -3.5625 Z M 2.265625 -4.546875 L 4.421875 -4.546875 C 5.054688 -4.546875 5.546875 -4.695312 5.890625 -5 C 6.234375 -5.300781 6.40625 -5.738281 6.40625 -6.3125 C 6.40625 -6.851562 6.234375 -7.285156 5.890625 -7.609375 C 5.546875 -7.941406 5.078125 -8.113281 4.484375 -8.125 L 2.265625 -8.125 Z M 2.265625 -4.546875 "/></g></g></g><g fill="#edd99e" fill-opacity="1"><g transform="translate(147.44845, 12.960069)"><g><path d="M 4.390625 -3.6875 L 2.265625 -3.6875 L 2.265625 0 L 1.046875 0 L 1.046875 -9.109375 L 4.0625 -9.109375 C 5.09375 -9.109375 5.882812 -8.875 6.4375 -8.40625 C 6.988281 -7.9375 7.265625 -7.257812 7.265625 -6.375 C 7.265625 -5.800781 7.109375 -5.300781 6.796875 -4.875 C 6.492188 -4.457031 6.070312 -4.144531 5.53125 -3.9375 L 7.65625 -0.078125 L 7.65625 0 L 6.375 0 Z M 2.265625 -4.671875 L 4.109375 -4.671875 C 4.703125 -4.671875 5.175781 -4.820312 5.53125 -5.125 C 5.882812 -5.4375 6.0625 -5.851562 6.0625 -6.375 C 6.0625 -6.9375 5.890625 -7.363281 5.546875 -7.65625 C 5.210938 -7.957031 4.726562 -8.113281 4.09375 -8.125 L 2.265625 -8.125 Z M 2.265625 -4.671875 "/></g></g></g><g fill="#edd99e" fill-opacity="1"><g transform="translate(155.335498, 12.960069)"><g><path d="M 8.0625 -4.265625 C 8.0625 -3.367188 7.910156 -2.585938 7.609375 -1.921875 C 7.304688 -1.253906 6.878906 -0.742188 6.328125 -0.390625 C 5.785156 -0.046875 5.144531 0.125 4.40625 0.125 C 3.6875 0.125 3.050781 -0.0507812 2.5 -0.40625 C 1.945312 -0.757812 1.515625 -1.257812 1.203125 -1.90625 C 0.898438 -2.5625 0.742188 -3.316406 0.734375 -4.171875 L 0.734375 -4.84375 C 0.734375 -5.71875 0.882812 -6.488281 1.1875 -7.15625 C 1.5 -7.832031 1.929688 -8.347656 2.484375 -8.703125 C 3.046875 -9.054688 3.679688 -9.234375 4.390625 -9.234375 C 5.128906 -9.234375 5.773438 -9.054688 6.328125 -8.703125 C 6.878906 -8.347656 7.304688 -7.835938 7.609375 -7.171875 C 7.910156 -6.503906 8.0625 -5.726562 8.0625 -4.84375 Z M 6.875 -4.84375 C 6.875 -5.925781 6.65625 -6.753906 6.21875 -7.328125 C 5.78125 -7.910156 5.171875 -8.203125 4.390625 -8.203125 C 3.640625 -8.203125 3.046875 -7.910156 2.609375 -7.328125 C 2.171875 -6.753906 1.945312 -5.957031 1.9375 -4.9375 L 1.9375 -4.265625 C 1.9375 -3.210938 2.15625 -2.382812 2.59375 -1.78125 C 3.03125 -1.1875 3.632812 -0.890625 4.40625 -0.890625 C 5.1875 -0.890625 5.785156 -1.171875 6.203125 -1.734375 C 6.628906 -2.304688 6.851562 -3.117188 6.875 -4.171875 Z M 6.875 -4.84375 "/></g></g></g><g fill="#edd99e" fill-opacity="1"><g transform="translate(164.141965, 12.960069)"><g><path d="M 7.75 -2.890625 C 7.644531 -1.921875 7.289062 -1.175781 6.6875 -0.65625 C 6.09375 -0.132812 5.296875 0.125 4.296875 0.125 C 3.222656 0.125 2.363281 -0.257812 1.71875 -1.03125 C 1.070312 -1.800781 0.75 -2.832031 0.75 -4.125 L 0.75 -5 C 0.75 -5.851562 0.898438 -6.597656 1.203125 -7.234375 C 1.503906 -7.878906 1.929688 -8.375 2.484375 -8.71875 C 3.035156 -9.0625 3.675781 -9.234375 4.40625 -9.234375 C 5.375 -9.234375 6.148438 -8.960938 6.734375 -8.421875 C 7.316406 -7.878906 7.65625 -7.132812 7.75 -6.1875 L 6.546875 -6.1875 C 6.441406 -6.90625 6.210938 -7.425781 5.859375 -7.75 C 5.515625 -8.082031 5.03125 -8.25 4.40625 -8.25 C 3.644531 -8.25 3.046875 -7.960938 2.609375 -7.390625 C 2.171875 -6.828125 1.953125 -6.019531 1.953125 -4.96875 L 1.953125 -4.09375 C 1.953125 -3.101562 2.15625 -2.316406 2.5625 -1.734375 C 2.976562 -1.148438 3.554688 -0.859375 4.296875 -0.859375 C 4.972656 -0.859375 5.488281 -1.007812 5.84375 -1.3125 C 6.195312 -1.613281 6.429688 -2.140625 6.546875 -2.890625 Z M 7.75 -2.890625 "/></g></g></g><g fill="#edd99e" fill-opacity="1"><g transform="translate(172.479343, 12.960069)"><g><path d="M 6.203125 -4.203125 L 2.265625 -4.203125 L 2.265625 -0.984375 L 6.84375 -0.984375 L 6.84375 0 L 1.0625 0 L 1.0625 -9.109375 L 6.78125 -9.109375 L 6.78125 -8.125 L 2.265625 -8.125 L 2.265625 -5.1875 L 6.203125 -5.1875 Z M 6.203125 -4.203125 "/></g></g></g><g fill="#edd99e" fill-opacity="1"><g transform="translate(179.759689, 12.960069)"><g><path d="M 3.734375 -4.0625 C 2.710938 -4.351562 1.960938 -4.710938 1.484375 -5.140625 C 1.015625 -5.578125 0.78125 -6.113281 0.78125 -6.75 C 0.78125 -7.46875 1.066406 -8.0625 1.640625 -8.53125 C 2.222656 -9 2.972656 -9.234375 3.890625 -9.234375 C 4.515625 -9.234375 5.070312 -9.113281 5.5625 -8.875 C 6.050781 -8.632812 6.425781 -8.300781 6.6875 -7.875 C 6.957031 -7.445312 7.09375 -6.976562 7.09375 -6.46875 L 5.890625 -6.46875 C 5.890625 -7.019531 5.710938 -7.453125 5.359375 -7.765625 C 5.015625 -8.085938 4.523438 -8.25 3.890625 -8.25 C 3.296875 -8.25 2.832031 -8.117188 2.5 -7.859375 C 2.164062 -7.597656 2 -7.234375 2 -6.765625 C 2 -6.398438 2.15625 -6.085938 2.46875 -5.828125 C 2.789062 -5.566406 3.328125 -5.332031 4.078125 -5.125 C 4.835938 -4.914062 5.429688 -4.679688 5.859375 -4.421875 C 6.285156 -4.160156 6.601562 -3.859375 6.8125 -3.515625 C 7.019531 -3.179688 7.125 -2.78125 7.125 -2.3125 C 7.125 -1.570312 6.832031 -0.976562 6.25 -0.53125 C 5.675781 -0.09375 4.910156 0.125 3.953125 0.125 C 3.328125 0.125 2.738281 0.00390625 2.1875 -0.234375 C 1.644531 -0.472656 1.226562 -0.800781 0.9375 -1.21875 C 0.644531 -1.632812 0.5 -2.109375 0.5 -2.640625 L 1.703125 -2.640625 C 1.703125 -2.085938 1.90625 -1.648438 2.3125 -1.328125 C 2.71875 -1.015625 3.265625 -0.859375 3.953125 -0.859375 C 4.585938 -0.859375 5.070312 -0.988281 5.40625 -1.25 C 5.738281 -1.507812 5.90625 -1.859375 5.90625 -2.296875 C 5.90625 -2.742188 5.75 -3.085938 5.4375 -3.328125 C 5.125 -3.578125 4.554688 -3.820312 3.734375 -4.0625 Z M 3.734375 -4.0625 "/></g></g></g><g fill="#edd99e" fill-opacity="1"><g transform="translate(187.359026, 12.960069)"><g><path d="M 8.0625 -4.265625 C 8.0625 -3.367188 7.910156 -2.585938 7.609375 -1.921875 C 7.304688 -1.253906 6.878906 -0.742188 6.328125 -0.390625 C 5.785156 -0.046875 5.144531 0.125 4.40625 0.125 C 3.6875 0.125 3.050781 -0.0507812 2.5 -0.40625 C 1.945312 -0.757812 1.515625 -1.257812 1.203125 -1.90625 C 0.898438 -2.5625 0.742188 -3.316406 0.734375 -4.171875 L 0.734375 -4.84375 C 0.734375 -5.71875 0.882812 -6.488281 1.1875 -7.15625 C 1.5 -7.832031 1.929688 -8.347656 2.484375 -8.703125 C 3.046875 -9.054688 3.679688 -9.234375 4.390625 -9.234375 C 5.128906 -9.234375 5.773438 -9.054688 6.328125 -8.703125 C 6.878906 -8.347656 7.304688 -7.835938 7.609375 -7.171875 C 7.910156 -6.503906 8.0625 -5.726562 8.0625 -4.84375 Z M 6.875 -4.84375 C 6.875 -5.925781 6.65625 -6.753906 6.21875 -7.328125 C 5.78125 -7.910156 5.171875 -8.203125 4.390625 -8.203125 C 3.640625 -8.203125 3.046875 -7.910156 2.609375 -7.328125 C 2.171875 -6.753906 1.945312 -5.957031 1.9375 -4.9375 L 1.9375 -4.265625 C 1.9375 -3.210938 2.15625 -2.382812 2.59375 -1.78125 C 3.03125 -1.1875 3.632812 -0.890625 4.40625 -0.890625 C 5.1875 -0.890625 5.785156 -1.171875 6.203125 -1.734375 C 6.628906 -2.304688 6.851562 -3.117188 6.875 -4.171875 Z M 6.875 -4.84375 "/></g></g></g><g fill="#edd99e" fill-opacity="1"><g transform="translate(196.165492, 12.960069)"><g><path d="M 3.734375 -4.0625 C 2.710938 -4.351562 1.960938 -4.710938 1.484375 -5.140625 C 1.015625 -5.578125 0.78125 -6.113281 0.78125 -6.75 C 0.78125 -7.46875 1.066406 -8.0625 1.640625 -8.53125 C 2.222656 -9 2.972656 -9.234375 3.890625 -9.234375 C 4.515625 -9.234375 5.070312 -9.113281 5.5625 -8.875 C 6.050781 -8.632812 6.425781 -8.300781 6.6875 -7.875 C 6.957031 -7.445312 7.09375 -6.976562 7.09375 -6.46875 L 5.890625 -6.46875 C 5.890625 -7.019531 5.710938 -7.453125 5.359375 -7.765625 C 5.015625 -8.085938 4.523438 -8.25 3.890625 -8.25 C 3.296875 -8.25 2.832031 -8.117188 2.5 -7.859375 C 2.164062 -7.597656 2 -7.234375 2 -6.765625 C 2 -6.398438 2.15625 -6.085938 2.46875 -5.828125 C 2.789062 -5.566406 3.328125 -5.332031 4.078125 -5.125 C 4.835938 -4.914062 5.429688 -4.679688 5.859375 -4.421875 C 6.285156 -4.160156 6.601562 -3.859375 6.8125 -3.515625 C 7.019531 -3.179688 7.125 -2.78125 7.125 -2.3125 C 7.125 -1.570312 6.832031 -0.976562 6.25 -0.53125 C 5.675781 -0.09375 4.910156 0.125 3.953125 0.125 C 3.328125 0.125 2.738281 0.00390625 2.1875 -0.234375 C 1.644531 -0.472656 1.226562 -0.800781 0.9375 -1.21875 C 0.644531 -1.632812 0.5 -2.109375 0.5 -2.640625 L 1.703125 -2.640625 C 1.703125 -2.085938 1.90625 -1.648438 2.3125 -1.328125 C 2.71875 -1.015625 3.265625 -0.859375 3.953125 -0.859375 C 4.585938 -0.859375 5.070312 -0.988281 5.40625 -1.25 C 5.738281 -1.507812 5.90625 -1.859375 5.90625 -2.296875 C 5.90625 -2.742188 5.75 -3.085938 5.4375 -3.328125 C 5.125 -3.578125 4.554688 -3.820312 3.734375 -4.0625 Z M 3.734375 -4.0625 "/></g></g></g><g fill="#edd99e" fill-opacity="1"><g transform="translate(203.764829, 12.960069)"><g/></g></g><g fill="#edd99e" fill-opacity="1"><g transform="translate(206.935914, 12.960069)"><g><path d="M 6.203125 -4.203125 L 2.265625 -4.203125 L 2.265625 -0.984375 L 6.84375 -0.984375 L 6.84375 0 L 1.0625 0 L 1.0625 -9.109375 L 6.78125 -9.109375 L 6.78125 -8.125 L 2.265625 -8.125 L 2.265625 -5.1875 L 6.203125 -5.1875 Z M 6.203125 -4.203125 "/></g></g></g><g fill="#edd99e" fill-opacity="1"><g transform="translate(214.21626, 12.960069)"><g><path d="M 2.265625 -0.984375 L 6.578125 -0.984375 L 6.578125 0 L 1.0625 0 L 1.0625 -9.109375 L 2.265625 -9.109375 Z M 2.265625 -0.984375 "/></g></g></g><g fill="#edd99e" fill-opacity="1"><g transform="translate(221.108808, 12.960069)"><g><path d="M 6.203125 -4.203125 L 2.265625 -4.203125 L 2.265625 -0.984375 L 6.84375 -0.984375 L 6.84375 0 L 1.0625 0 L 1.0625 -9.109375 L 6.78125 -9.109375 L 6.78125 -8.125 L 2.265625 -8.125 L 2.265625 -5.1875 L 6.203125 -5.1875 Z M 6.203125 -4.203125 "/></g></g></g><g fill="#edd99e" fill-opacity="1"><g transform="translate(228.38918, 12.960069)"><g><path d="M 7.75 -2.890625 C 7.644531 -1.921875 7.289062 -1.175781 6.6875 -0.65625 C 6.09375 -0.132812 5.296875 0.125 4.296875 0.125 C 3.222656 0.125 2.363281 -0.257812 1.71875 -1.03125 C 1.070312 -1.800781 0.75 -2.832031 0.75 -4.125 L 0.75 -5 C 0.75 -5.851562 0.898438 -6.597656 1.203125 -7.234375 C 1.503906 -7.878906 1.929688 -8.375 2.484375 -8.71875 C 3.035156 -9.0625 3.675781 -9.234375 4.40625 -9.234375 C 5.375 -9.234375 6.148438 -8.960938 6.734375 -8.421875 C 7.316406 -7.878906 7.65625 -7.132812 7.75 -6.1875 L 6.546875 -6.1875 C 6.441406 -6.90625 6.210938 -7.425781 5.859375 -7.75 C 5.515625 -8.082031 5.03125 -8.25 4.40625 -8.25 C 3.644531 -8.25 3.046875 -7.960938 2.609375 -7.390625 C 2.171875 -6.828125 1.953125 -6.019531 1.953125 -4.96875 L 1.953125 -4.09375 C 1.953125 -3.101562 2.15625 -2.316406 2.5625 -1.734375 C 2.976562 -1.148438 3.554688 -0.859375 4.296875 -0.859375 C 4.972656 -0.859375 5.488281 -1.007812 5.84375 -1.3125 C 6.195312 -1.613281 6.429688 -2.140625 6.546875 -2.890625 Z M 7.75 -2.890625 "/></g></g></g><g fill="#edd99e" fill-opacity="1"><g transform="translate(236.726559, 12.960069)"><g><path d="M 7.34375 -8.125 L 4.421875 -8.125 L 4.421875 0 L 3.234375 0 L 3.234375 -8.125 L 0.3125 -8.125 L 0.3125 -9.109375 L 7.34375 -9.109375 Z M 7.34375 -8.125 "/></g></g></g><g fill="#edd99e" fill-opacity="1"><g transform="translate(244.369658, 12.960069)"><g><path d="M 8.0625 -4.265625 C 8.0625 -3.367188 7.910156 -2.585938 7.609375 -1.921875 C 7.304688 -1.253906 6.878906 -0.742188 6.328125 -0.390625 C 5.785156 -0.046875 5.144531 0.125 4.40625 0.125 C 3.6875 0.125 3.050781 -0.0507812 2.5 -0.40625 C 1.945312 -0.757812 1.515625 -1.257812 1.203125 -1.90625 C 0.898438 -2.5625 0.742188 -3.316406 0.734375 -4.171875 L 0.734375 -4.84375 C 0.734375 -5.71875 0.882812 -6.488281 1.1875 -7.15625 C 1.5 -7.832031 1.929688 -8.347656 2.484375 -8.703125 C 3.046875 -9.054688 3.679688 -9.234375 4.390625 -9.234375 C 5.128906 -9.234375 5.773438 -9.054688 6.328125 -8.703125 C 6.878906 -8.347656 7.304688 -7.835938 7.609375 -7.171875 C 7.910156 -6.503906 8.0625 -5.726562 8.0625 -4.84375 Z M 6.875 -4.84375 C 6.875 -5.925781 6.65625 -6.753906 6.21875 -7.328125 C 5.78125 -7.910156 5.171875 -8.203125 4.390625 -8.203125 C 3.640625 -8.203125 3.046875 -7.910156 2.609375 -7.328125 C 2.171875 -6.753906 1.945312 -5.957031 1.9375 -4.9375 L 1.9375 -4.265625 C 1.9375 -3.210938 2.15625 -2.382812 2.59375 -1.78125 C 3.03125 -1.1875 3.632812 -0.890625 4.40625 -0.890625 C 5.1875 -0.890625 5.785156 -1.171875 6.203125 -1.734375 C 6.628906 -2.304688 6.851562 -3.117188 6.875 -4.171875 Z M 6.875 -4.84375 "/></g></g></g><g fill="#edd99e" fill-opacity="1"><g transform="translate(253.176125, 12.960069)"><g><path d="M 4.390625 -3.6875 L 2.265625 -3.6875 L 2.265625 0 L 1.046875 0 L 1.046875 -9.109375 L 4.0625 -9.109375 C 5.09375 -9.109375 5.882812 -8.875 6.4375 -8.40625 C 6.988281 -7.9375 7.265625 -7.257812 7.265625 -6.375 C 7.265625 -5.800781 7.109375 -5.300781 6.796875 -4.875 C 6.492188 -4.457031 6.070312 -4.144531 5.53125 -3.9375 L 7.65625 -0.078125 L 7.65625 0 L 6.375 0 Z M 2.265625 -4.671875 L 4.109375 -4.671875 C 4.703125 -4.671875 5.175781 -4.820312 5.53125 -5.125 C 5.882812 -5.4375 6.0625 -5.851562 6.0625 -6.375 C 6.0625 -6.9375 5.890625 -7.363281 5.546875 -7.65625 C 5.210938 -7.957031 4.726562 -8.113281 4.09375 -8.125 L 2.265625 -8.125 Z M 2.265625 -4.671875 "/></g></g></g><g fill="#edd99e" fill-opacity="1"><g transform="translate(261.063173, 12.960069)"><g><path d="M 6.09375 -2.375 L 2.265625 -2.375 L 1.40625 0 L 0.171875 0 L 3.65625 -9.109375 L 4.703125 -9.109375 L 8.1875 0 L 6.953125 0 Z M 2.640625 -3.359375 L 5.734375 -3.359375 L 4.171875 -7.625 Z M 2.640625 -3.359375 "/></g></g></g><g fill="#edd99e" fill-opacity="1"><g transform="translate(269.419309, 12.960069)"><g><path d="M 2.265625 -0.984375 L 6.578125 -0.984375 L 6.578125 0 L 1.0625 0 L 1.0625 -9.109375 L 2.265625 -9.109375 Z M 2.265625 -0.984375 "/></g></g></g><g fill="#edd99e" fill-opacity="1"><g transform="translate(276.311857, 12.960069)"><g><path d="M 6.203125 -4.203125 L 2.265625 -4.203125 L 2.265625 -0.984375 L 6.84375 -0.984375 L 6.84375 0 L 1.0625 0 L 1.0625 -9.109375 L 6.78125 -9.109375 L 6.78125 -8.125 L 2.265625 -8.125 L 2.265625 -5.1875 L 6.203125 -5.1875 Z M 6.203125 -4.203125 "/></g></g></g><g fill="#edd99e" fill-opacity="1"><g transform="translate(283.592229, 12.960069)"><g><path d="M 3.734375 -4.0625 C 2.710938 -4.351562 1.960938 -4.710938 1.484375 -5.140625 C 1.015625 -5.578125 0.78125 -6.113281 0.78125 -6.75 C 0.78125 -7.46875 1.066406 -8.0625 1.640625 -8.53125 C 2.222656 -9 2.972656 -9.234375 3.890625 -9.234375 C 4.515625 -9.234375 5.070312 -9.113281 5.5625 -8.875 C 6.050781 -8.632812 6.425781 -8.300781 6.6875 -7.875 C 6.957031 -7.445312 7.09375 -6.976562 7.09375 -6.46875 L 5.890625 -6.46875 C 5.890625 -7.019531 5.710938 -7.453125 5.359375 -7.765625 C 5.015625 -8.085938 4.523438 -8.25 3.890625 -8.25 C 3.296875 -8.25 2.832031 -8.117188 2.5 -7.859375 C 2.164062 -7.597656 2 -7.234375 2 -6.765625 C 2 -6.398438 2.15625 -6.085938 2.46875 -5.828125 C 2.789062 -5.566406 3.328125 -5.332031 4.078125 -5.125 C 4.835938 -4.914062 5.429688 -4.679688 5.859375 -4.421875 C 6.285156 -4.160156 6.601562 -3.859375 6.8125 -3.515625 C 7.019531 -3.179688 7.125 -2.78125 7.125 -2.3125 C 7.125 -1.570312 6.832031 -0.976562 6.25 -0.53125 C 5.675781 -0.09375 4.910156 0.125 3.953125 0.125 C 3.328125 0.125 2.738281 0.00390625 2.1875 -0.234375 C 1.644531 -0.472656 1.226562 -0.800781 0.9375 -1.21875 C 0.644531 -1.632812 0.5 -2.109375 0.5 -2.640625 L 1.703125 -2.640625 C 1.703125 -2.085938 1.90625 -1.648438 2.3125 -1.328125 C 2.71875 -1.015625 3.265625 -0.859375 3.953125 -0.859375 C 4.585938 -0.859375 5.070312 -0.988281 5.40625 -1.25 C 5.738281 -1.507812 5.90625 -1.859375 5.90625 -2.296875 C 5.90625 -2.742188 5.75 -3.085938 5.4375 -3.328125 C 5.125 -3.578125 4.554688 -3.820312 3.734375 -4.0625 Z M 3.734375 -4.0625 "/></g></g></g></g></g></svg>